<svg width="143" height="143" viewBox="0 0 143 143" fill="none" xmlns="http://www.w3.org/2000/svg">
<path d="M8.9375 54.2208C8.9375 38.3702 8.9375 30.4449 12.0222 24.3907C14.7357 19.0653 19.0653 14.7357 24.3907 12.0222C30.4449 8.9375 38.3702 8.9375 54.2208 8.9375H88.7792C104.63 8.9375 112.555 8.9375 118.609 12.0222C123.935 14.7357 128.264 19.0653 130.978 24.3907C134.063 30.4449 134.063 38.3702 134.063 54.2208V88.7792C134.063 104.63 134.063 112.555 130.978 118.609C128.264 123.935 123.935 128.264 118.609 130.978C112.555 134.063 104.63 134.063 88.7792 134.063H54.2208C38.3702 134.063 30.4449 134.063 24.3907 130.978C19.0653 128.264 14.7357 123.935 12.0222 118.609C8.9375 112.555 8.9375 104.63 8.9375 88.7792V54.2208Z" fill="#330000"/>
<path d="M69.5713 87.5708H50.1817L46.2367 100.14C46.1271 100.607 45.6971 100.938 45.2293 100.915H35.4086C34.8486 100.915 34.6527 100.599 34.8211 99.9678L51.6085 50.3798C51.7766 49.8634 51.9445 49.2751 52.1123 48.6149C52.3319 47.4663 52.4443 46.2989 52.4481 45.1284C52.4 44.7826 52.7039 44.4772 53.0357 44.5257H66.3816C66.7726 44.5257 66.9965 44.6692 67.0532 44.9562L86.1073 100.054C86.2751 100.628 86.1071 100.915 85.6035 100.915H74.6915C74.3087 100.958 73.9433 100.696 73.8521 100.312L69.5713 87.5708ZM53.2034 76.7235H66.4656C64.2867 69.2778 61.8277 61.9298 59.8347 54.4261C57.6843 61.9425 55.3382 69.4286 53.2034 76.7235Z" fill="#FF9A00"/>
<path d="M97.4378 53.651C96.5817 53.6863 95.7279 53.5358 94.9324 53.2094C94.1369 52.8831 93.4175 52.3881 92.8212 51.757C92.2266 51.0986 91.7648 50.3261 91.4622 49.4839C91.1597 48.6418 91.0224 47.7466 91.0583 46.8499C91.0278 45.962 91.1803 45.0776 91.5057 44.2542C91.8311 43.4309 92.3223 42.6873 92.947 42.0719C93.5656 41.4628 94.2959 40.9856 95.0955 40.6679C95.8952 40.3502 96.7483 40.1983 97.6055 40.221C99.6202 40.221 101.201 40.8379 102.348 42.0719C102.927 42.7131 103.377 43.4652 103.672 44.2851C103.968 45.105 104.102 45.9766 104.069 46.8499C104.104 47.7501 103.962 48.6484 103.652 49.4914C103.342 50.3344 102.87 51.1048 102.264 51.757C101.631 52.3974 100.875 52.8963 100.044 53.2223C99.2136 53.5482 98.3262 53.6942 97.4378 53.651ZM91.6459 100.054V58.9024C91.6459 58.386 91.8689 58.1276 92.3174 58.1276H102.642C103.089 58.1276 103.313 58.3859 103.313 58.9024V100.054C103.313 100.628 103.09 100.915 102.642 100.915H92.4014C91.8979 100.915 91.6461 100.628 91.6459 100.054Z" fill="#FF9A00"/>
</svg>
