<svg width="143" height="143" viewBox="0 0 143 143" fill="none" xmlns="http://www.w3.org/2000/svg">
<path d="M123.761 102.781C124.602 101.27 125.125 99.5671 125.125 98.0381V44.9616C125.125 43.4326 124.603 41.7302 123.761 40.219L71.5 71.5L123.761 102.781Z" fill="#00599C"/>
<path d="M76.144 132.915L120.481 106.377C121.758 105.613 122.919 104.293 123.761 102.781L71.5 71.5L19.2395 102.781C20.081 104.293 21.2422 105.613 22.519 106.377L66.856 132.915C69.4101 134.444 73.59 134.444 76.144 132.915Z" fill="#004482"/>
<path d="M123.761 40.2186C122.919 38.707 121.758 37.3869 120.481 36.6223L76.144 10.0843C73.59 8.55524 69.41 8.55524 66.856 10.0843L22.519 36.6223C19.9646 38.151 17.875 41.9039 17.875 44.9616V98.0381C17.875 99.5671 18.3976 101.27 19.2395 102.781L71.5 71.5L123.761 40.2186Z" fill="#659AD2"/>
<path d="M71.6721 107.25C51.8646 107.25 35.75 91.2126 35.75 71.5C35.75 51.7874 51.8646 35.75 71.6721 35.75C84.2171 35.75 95.9326 42.3445 102.419 53.0073L87.0357 62.2339C83.7855 56.9139 77.9345 53.625 71.6721 53.625C61.7681 53.625 53.711 61.6435 53.711 71.5C53.711 81.3561 61.7681 89.375 71.6721 89.375C77.9178 89.375 83.7538 86.1043 87.0096 80.8094L102.426 89.9823C95.9403 100.651 84.2214 107.25 71.6721 107.25Z" fill="white"/>
<path d="M102.781 69.2422H98.3122V64.7969H93.844V69.2422H89.375V73.6876H93.844V78.1333H98.3122V73.6876H102.781V69.2422Z" fill="white"/>
<path d="M120.656 69.2655H116.187V64.7969H111.719V69.2655H107.25V73.7341H111.719V78.2031H116.187V73.7341H120.656V69.2655Z" fill="white"/>
</svg>
