<svg width="143" height="143" viewBox="0 0 143 143" fill="none" xmlns="http://www.w3.org/2000/svg">
<path fill-rule="evenodd" clip-rule="evenodd" d="M71.5 71.5C71.5 61.6279 79.5029 53.625 89.375 53.625C99.2471 53.625 107.25 61.6279 107.25 71.5C107.25 81.3721 99.2471 89.375 89.375 89.375C79.5029 89.375 71.5 81.3721 71.5 71.5Z" fill="#1ABCFE"/>
<path fill-rule="evenodd" clip-rule="evenodd" d="M35.75 107.25C35.75 97.3779 43.7529 89.375 53.625 89.375H71.5V107.25C71.5 117.122 63.4971 125.125 53.625 125.125C43.7529 125.125 35.75 117.122 35.75 107.25Z" fill="#0ACF83"/>
<path fill-rule="evenodd" clip-rule="evenodd" d="M71.5 17.875V53.625H89.375C99.2471 53.625 107.25 45.6221 107.25 35.75C107.25 25.8779 99.2471 17.875 89.375 17.875H71.5Z" fill="#FF7262"/>
<path fill-rule="evenodd" clip-rule="evenodd" d="M35.75 35.75C35.75 45.6221 43.7529 53.625 53.625 53.625H71.5V17.875H53.625C43.7529 17.875 35.75 25.8779 35.75 35.75Z" fill="#F24E1E"/>
<path fill-rule="evenodd" clip-rule="evenodd" d="M35.75 71.5C35.75 81.3721 43.7529 89.375 53.625 89.375H71.5V53.625H53.625C43.7529 53.625 35.75 61.6279 35.75 71.5Z" fill="#A259FF"/>
</svg>
