<svg width="145" height="145" viewBox="0 0 145 145" fill="none" xmlns="http://www.w3.org/2000/svg">
<path d="M4.98952 80.7173C1.00349 76.7313 1.0035 70.2687 4.98952 66.2827L66.2827 4.98952C70.2687 1.00349 76.7313 1.0035 80.7173 4.98952L142.01 66.2827C145.997 70.2687 145.996 76.7313 142.01 80.7173L80.7173 142.01C76.7313 145.997 70.2687 145.996 66.2827 142.01L4.98952 80.7173Z" fill="#EE513B"/>
<path d="M54.2921 22.6193L48.8611 28.0503L62.8881 42.0773C62.3207 43.2947 62.0039 44.6524 62.0039 46.084C62.0039 50.1488 64.5577 53.617 68.1484 54.9718V89.2852C64.5577 90.6399 62.0039 94.1082 62.0039 98.1729C62.0039 103.417 66.2554 107.669 71.5 107.669C76.7445 107.669 80.9961 103.417 80.9961 98.1729C80.9961 94.4877 78.8969 91.2928 75.8291 89.7188V55.0183L89.2377 68.4269C88.6979 69.6196 88.3974 70.9437 88.3974 72.3379C88.3974 77.5825 92.649 81.834 97.8935 81.834C103.138 81.834 107.39 77.5825 107.39 72.3379C107.39 67.0934 103.138 62.8418 97.8935 62.8418C96.8744 62.8418 95.8927 63.0024 94.9725 63.2996L80.5719 48.899C80.8476 48.0095 80.9961 47.0641 80.9961 46.084C80.9961 40.8395 76.7445 36.5879 71.5 36.5879C70.5199 36.5879 69.5745 36.7364 68.685 37.0121L54.2921 22.6193Z" fill="white"/>
</svg>
