<svg width="235" height="94" viewBox="0 0 235 94" fill="none" xmlns="http://www.w3.org/2000/svg">
<path d="M17.625 82.25L11.75 8.8125H82.25L76.375 82.25L47 91.0625L17.625 82.25Z" fill="#1172B8"/>
<path d="M76.375 14.6875H47V86.6562L70.5 79.3125L76.375 14.6875Z" fill="#33AADD"/>
<path d="M57.2813 51.4062H27.9063L26.4375 41.125L49.9375 33.7812H26.4375L24.9688 24.9688H70.5L69.0312 35.25L49.9375 42.5938H67.5625L64.625 70.5L47 76.375L29.375 70.5L27.9063 55.8125H36.7188L38.1875 63.1562L47 66.0938L55.8125 63.1562L57.2813 51.4062Z" fill="white"/>
<path d="M158.625 82.25L152.75 8.8125H223.25L217.375 82.25L188 91.0625L158.625 82.25Z" fill="#E44D26"/>
<path d="M217.375 14.6875H188V86.6562L211.5 79.3125L217.375 14.6875Z" fill="#F16529"/>
<path d="M168.906 51.4062L165.969 23.5H211.5L210.031 32.3125H174.781L176.25 42.5938H208.562L205.625 70.5L188 76.375L170.375 70.5L168.906 55.8125H177.719L179.188 63.1562L188 66.0938L196.812 63.1562L198.281 51.4062H168.906Z" fill="white"/>
</svg>
