<svg width="419" height="419" viewBox="0 0 419 419" fill="none" xmlns="http://www.w3.org/2000/svg">
<rect x="26.1875" y="26.1875" width="366.625" height="366.625" rx="183.312" fill="white"/>
<rect x="26.1875" y="26.1875" width="366.625" height="366.625" rx="183.312" fill="white"/>
<path d="M301.156 137.484C301.156 148.332 292.363 157.125 281.516 157.125C270.668 157.125 261.875 148.332 261.875 137.484C261.875 126.637 270.668 117.844 281.516 117.844C292.363 117.844 301.156 126.637 301.156 137.484Z" fill="#14121C"/>
<path fill-rule="evenodd" clip-rule="evenodd" d="M209.5 274.969C245.657 274.969 274.969 245.657 274.969 209.5C274.969 173.343 245.657 144.031 209.5 144.031C173.343 144.031 144.031 173.343 144.031 209.5C144.031 245.657 173.343 274.969 209.5 274.969ZM209.5 248.781C231.194 248.781 248.781 231.194 248.781 209.5C248.781 187.806 231.194 170.219 209.5 170.219C187.806 170.219 170.219 187.806 170.219 209.5C170.219 231.194 187.806 248.781 209.5 248.781Z" fill="#14121C"/>
<path fill-rule="evenodd" clip-rule="evenodd" d="M78.5625 204.263C78.5625 160.263 78.5625 138.264 87.1253 121.458C94.6574 106.676 106.676 94.6574 121.458 87.1253C138.264 78.5625 160.263 78.5625 204.263 78.5625H214.737C258.737 78.5625 280.736 78.5625 297.542 87.1253C312.324 94.6574 324.343 106.676 331.875 121.458C340.438 138.264 340.438 160.263 340.438 204.263V214.737C340.438 258.737 340.438 280.736 331.875 297.542C324.343 312.324 312.324 324.343 297.542 331.875C280.736 340.438 258.737 340.438 214.737 340.438H204.263C160.263 340.438 138.264 340.438 121.458 331.875C106.676 324.343 94.6574 312.324 87.1253 297.542C78.5625 280.736 78.5625 258.737 78.5625 214.737V204.263ZM204.263 104.75H214.737C237.169 104.75 252.418 104.77 264.205 105.733C275.686 106.671 281.557 108.372 285.653 110.459C295.508 115.48 303.52 123.492 308.541 133.347C310.628 137.443 312.329 143.314 313.267 154.795C314.23 166.582 314.25 181.831 314.25 204.263V214.737C314.25 237.169 314.23 252.418 313.267 264.205C312.329 275.686 310.628 281.557 308.541 285.653C303.52 295.508 295.508 303.52 285.653 308.541C281.557 310.628 275.686 312.329 264.205 313.267C252.418 314.23 237.169 314.25 214.737 314.25H204.263C181.831 314.25 166.582 314.23 154.795 313.267C143.314 312.329 137.443 310.628 133.347 308.541C123.492 303.52 115.48 295.508 110.459 285.653C108.372 281.557 106.671 275.686 105.733 264.205C104.77 252.418 104.75 237.169 104.75 214.737V204.263C104.75 181.831 104.77 166.582 105.733 154.795C106.671 143.314 108.372 137.443 110.459 133.347C115.48 123.492 123.492 115.48 133.347 110.459C137.443 108.372 143.314 106.671 154.795 105.733C166.582 104.77 181.831 104.75 204.263 104.75Z" fill="#14121C"/>
</svg>
