<svg width="143" height="143" viewBox="0 0 143 143" fill="none" xmlns="http://www.w3.org/2000/svg">
<path d="M71.7202 37.719C101.161 14.8634 86.0511 0 86.0511 0C88.2997 23.628 61.7247 29.207 54.6013 45.4435C49.7405 56.5228 57.9298 66.224 71.7104 78.4506C70.4921 75.7427 68.6131 73.1114 66.7109 70.4474C60.2231 61.3616 53.4643 51.8964 71.7202 37.719Z" fill="#E76F00"/>
<path d="M76.4202 83.4629C76.4202 83.4629 85.2775 76.3167 78.2632 68.3752C54.4858 41.4336 104.269 29.207 104.269 29.207C73.8742 43.8496 78.4117 52.541 86.0513 63.0995C94.2309 74.4215 76.4202 83.4629 76.4202 83.4629Z" fill="#E76F00"/>
<path d="M102.5 104.772C129.783 90.831 117.168 77.4334 108.363 79.2384C106.205 79.6801 105.243 80.0628 105.243 80.0628C105.243 80.0628 106.044 78.8286 107.574 78.2944C124.993 72.2725 138.389 96.0555 101.952 105.475C101.952 105.475 102.374 105.104 102.5 104.772Z" fill="#5382A1"/>
<path d="M45.7289 87.1269C28.6586 84.8852 55.0883 78.7122 55.0883 78.7122C55.0883 78.7122 44.8247 78.0315 32.2015 84.0319C17.2752 91.1319 69.1229 94.3611 95.9618 87.4198C98.7521 85.5462 102.609 83.922 102.609 83.922C102.609 83.922 91.626 85.8511 80.6882 86.7584C67.3047 87.8611 52.9365 88.0758 45.7289 87.1269Z" fill="#5382A1"/>
<path d="M52.2234 100.439C42.7045 99.4706 48.9373 94.9337 48.9373 94.9337C24.3055 102.973 62.6419 112.09 97.0607 102.192C93.4022 100.924 91.0756 98.6045 91.0756 98.6045C74.2542 101.79 64.533 101.688 52.2234 100.439Z" fill="#5382A1"/>
<path d="M56.371 114.843C46.8591 113.768 52.4162 110.59 52.4162 110.59C30.0565 116.734 66.0165 129.426 94.484 117.429C89.8213 115.646 86.4827 113.587 86.4827 113.587C73.7838 115.95 67.8944 116.136 56.371 114.843Z" fill="#5382A1"/>
<path d="M115.913 122.17C115.913 122.17 120.026 125.502 111.384 128.08C94.9526 132.975 42.9935 134.453 28.5595 128.275C23.3708 126.055 33.101 122.975 36.1618 122.329C39.3539 121.648 41.178 121.775 41.178 121.775C35.4077 117.777 3.88106 129.624 25.164 133.016C83.2058 142.272 130.969 128.848 115.913 122.17Z" fill="#5382A1"/>
<path d="M125.125 129.45C124.173 141.636 83.9576 144.199 57.7693 142.55C40.6849 141.473 37.261 138.781 37.2109 138.741C53.5619 141.392 81.1297 141.875 103.482 137.738C123.294 134.07 125.125 129.45 125.125 129.45Z" fill="#5382A1"/>
</svg>
