<svg width="143" height="143" viewBox="0 0 143 143" fill="none" xmlns="http://www.w3.org/2000/svg">
<rect x="8.9375" y="8.9375" width="125.125" height="125.125" fill="#FFCA28"/>
<path d="M84.9062 113.004L94.1188 106.908C94.8406 109.177 99.4125 114.564 105.188 114.564C110.963 114.564 113.644 111.409 113.644 109.318C113.644 103.62 107.747 101.611 104.914 100.646C104.453 100.488 104.073 100.359 103.812 100.245C103.679 100.187 103.478 100.11 103.219 100.011C100.069 98.8079 88.4469 94.3677 88.4469 81.4972C88.4469 67.3208 102.128 65.6906 105.222 65.6906C107.246 65.6906 116.978 65.9386 121.825 75.047L112.888 81.2846C110.928 77.3152 107.673 76.0039 105.669 76.0039C100.719 76.0039 99.6875 79.6328 99.6875 81.2846C99.6875 85.9196 105.066 87.9971 109.607 89.7512C110.795 90.2102 111.925 90.647 112.888 91.1016C117.838 93.4408 125.125 97.2683 125.125 109.318C125.125 115.354 120.063 125.125 107.319 125.125C90.2 125.125 85.6625 114.847 84.9062 113.004Z" fill="#3E3E3E"/>
<path d="M40.2188 114.215L49.8206 108.122C50.573 110.389 53.4966 114.569 57.7386 114.569C61.9806 114.569 64.1518 110.212 64.1518 108.122V67.0312H75.9607V108.122C76.1518 113.79 73.0085 125.125 59.1359 125.125C46.3812 125.125 41.0786 117.544 40.2188 114.215Z" fill="#3E3E3E"/>
</svg>
