<svg width="419" height="419" viewBox="0 0 419 419" fill="none" xmlns="http://www.w3.org/2000/svg">
<rect x="26.1875" y="26.1875" width="366.625" height="366.625" rx="183.312" fill="white"/>
<path d="M165.224 126.907C165.224 139.143 154.618 149.063 141.534 149.063C128.45 149.063 117.844 139.143 117.844 126.907C117.844 114.67 128.45 104.75 141.534 104.75C154.618 104.75 165.224 114.67 165.224 126.907Z" fill="#14121C"/>
<path d="M121.083 165.349H161.58V288.062H121.083V165.349Z" fill="#14121C"/>
<path d="M226.778 165.349H186.282V288.062H226.778C226.778 288.062 226.778 249.431 226.778 225.276C226.778 210.778 231.729 196.217 251.481 196.217C273.804 196.217 273.669 215.19 273.565 229.888C273.429 249.101 273.754 268.708 273.754 288.062H314.25V223.297C313.907 181.943 303.131 162.887 267.679 162.887C246.626 162.887 233.576 172.445 226.778 181.093V165.349Z" fill="#14121C"/>
</svg>
