<svg width="145" height="145" viewBox="0 0 145 145" fill="none" xmlns="http://www.w3.org/2000/svg">
<circle cx="73.5" cy="73.5" r="71.5" fill="#8892BF"/>
<path d="M64.5251 44.6875H72.0328L69.9111 55.9676H76.6571C80.3566 56.0467 83.1127 56.8735 84.9265 58.448C86.7762 60.0226 87.3202 63.0156 86.5586 67.4249L82.9135 87.0912H75.297L78.7789 68.3108C79.1412 66.3418 79.0324 64.9444 78.4524 64.1176C77.8725 63.2908 76.6212 62.8774 74.6986 62.8774L68.6598 62.8183L64.1987 87.0912H56.691L64.5251 44.6875Z" fill="white"/>
<path fill-rule="evenodd" clip-rule="evenodd" d="M30.1235 55.9678H44.7037C48.9831 56.0068 52.0841 57.3462 54.0067 59.9838C55.9293 62.6213 56.5637 66.2239 55.9108 70.7914C55.6573 72.8785 55.0948 74.9255 54.2243 76.9335C53.3898 78.9414 52.2299 80.7522 50.7425 82.3668C48.9287 84.4138 46.9886 85.7131 44.9213 86.2646C42.8539 86.8162 40.7137 87.0914 38.5016 87.0914H31.9732L29.9059 98.3125H22.3438L30.1235 55.9678ZM33.2245 80.4179L36.4778 62.7595H37.5768C37.9761 62.7595 38.3928 62.7394 38.8281 62.7004C41.7299 62.6614 44.1412 62.9567 46.0638 63.5863C48.0223 64.2159 48.6751 66.5983 48.0223 70.7323C47.2247 75.6542 45.6645 78.528 43.3436 79.3548C41.0227 80.1427 38.1208 80.5159 34.639 80.4769H33.8773C33.6597 80.4769 33.4421 80.4569 33.2245 80.4179Z" fill="white"/>
<path fill-rule="evenodd" clip-rule="evenodd" d="M109.201 55.9678H94.6206L86.8409 98.3125H94.403L96.4703 87.0914H102.999C105.211 87.0914 107.351 86.8162 109.418 86.2646C111.486 85.7131 113.426 84.4138 115.24 82.3668C116.727 80.7522 117.887 78.9414 118.721 76.9335C119.592 74.9255 120.154 72.8785 120.408 70.7914C121.061 66.2239 120.426 62.6213 118.504 59.9838C116.581 57.3462 113.48 56.0068 109.201 55.9678ZM100.975 62.7595L97.7216 80.4179C97.9392 80.4569 98.1569 80.4769 98.3745 80.4769H99.1361C102.618 80.5159 105.52 80.1427 107.841 79.3548C110.162 78.528 111.722 75.6542 112.519 70.7323C113.172 66.5983 112.519 64.2159 110.561 63.5863C108.638 62.9567 106.227 62.6614 103.325 62.7004C102.89 62.7394 102.473 62.7595 102.074 62.7595H100.975Z" fill="white"/>
</svg>
