<svg width="143" height="143" viewBox="0 0 143 143" fill="none" xmlns="http://www.w3.org/2000/svg">
<path d="M83.4713 71.3923C83.4713 64.9822 78.1119 59.7853 71.5 59.7853C64.8887 59.7853 59.5287 64.9822 59.5287 71.3923C59.5287 77.803 64.8887 82.9999 71.5 82.9999C78.1119 82.9999 83.4713 77.803 83.4713 71.3923Z" fill="#53C1DE"/>
<path fill-rule="evenodd" clip-rule="evenodd" d="M110.38 49.8431C112.908 39.8826 116.086 21.4119 104.883 15.1498C93.7335 8.91492 79.224 20.862 71.5623 28.0333C63.9229 20.9335 49.0059 9.03745 37.8129 15.3195C26.6673 21.5752 30.1044 39.7397 32.6885 49.7626C22.2915 52.6258 4.46875 58.7927 4.46875 71.3923C4.46875 83.9563 22.273 90.6656 32.6084 93.526C30.0147 103.604 26.7498 121.509 37.9096 127.751C49.1441 134.032 64.015 122.419 71.7474 115.17C79.4582 122.383 93.8286 134.072 104.981 127.813C116.168 121.534 113.254 103.31 110.67 93.2292C120.689 90.3626 138.531 83.7994 138.531 71.3923C138.531 58.9136 120.613 52.6967 110.38 49.8431ZM109.11 87.8867C107.413 82.6789 105.123 77.1409 102.321 71.4199C104.995 65.8342 107.197 60.3675 108.846 55.193C116.348 57.3017 132.805 62.1214 132.805 71.3923C132.805 80.7501 117.013 85.6155 109.11 87.8867ZM102.111 123.007C93.7903 127.677 81.4302 116.499 75.7357 111.186C79.5133 107.18 83.2885 102.523 86.973 97.3515C93.4543 96.7941 99.5773 95.8823 105.13 94.638C106.949 101.769 110.468 118.316 102.111 123.007ZM40.7712 122.94C32.4495 118.288 36.2531 102.31 38.1612 94.8865C43.6523 96.064 49.7308 96.9114 56.2276 97.4222C59.9363 102.483 63.8208 107.134 67.7354 111.208C62.8988 115.744 49.1317 127.614 40.7712 122.94ZM10.1954 71.3923C10.1954 61.9993 26.5536 57.2149 34.2263 55.1113C35.9042 60.402 38.1048 65.9337 40.7605 71.5275C38.0704 77.2048 35.8384 82.8245 34.1451 88.1772C26.829 86.1469 10.1954 80.7912 10.1954 71.3923ZM40.6822 20.1252C49.0379 15.4358 62.0026 26.8564 67.5491 31.9968C63.6546 36.0518 59.8058 40.6683 56.1291 45.6995C49.8239 46.2661 43.7882 47.1762 38.2395 48.3952C36.1578 40.3113 32.3355 24.8095 40.6822 20.1252ZM91.0698 51.7351C95.3476 52.2586 99.4456 52.9547 103.294 53.8066C102.139 57.3968 100.699 61.151 99.003 64.9995C96.5446 60.4768 93.9058 56.0453 91.0698 51.7351ZM71.5641 35.965C74.2055 38.7394 76.8511 41.8378 79.4534 45.199C74.1747 44.9572 68.8872 44.956 63.6083 45.1956C66.213 41.8654 68.8811 38.7717 71.5641 35.965ZM44.0462 64.9954C42.3784 61.1602 40.9515 57.3894 39.7863 53.748C43.6114 52.9179 47.6904 52.2396 51.9403 51.7248C49.0964 56.0254 46.462 60.4554 44.0462 64.9954ZM52.0625 91.4562C47.672 90.9811 43.5313 90.3373 39.7074 89.5303C40.891 85.8244 42.3494 81.9725 44.0528 78.055C46.502 82.6419 49.1763 87.1148 52.0625 91.4562ZM71.7225 107.212C69.0081 104.372 66.3008 101.231 63.6564 97.8525C68.9655 98.0548 74.2847 98.0552 79.5928 97.8255C76.9822 101.266 74.3461 104.411 71.7225 107.212ZM99.0576 77.8554C100.849 81.8155 102.36 85.6467 103.56 89.2898C99.6722 90.1498 95.4758 90.8424 91.0538 91.3567C93.9109 86.9651 96.5914 82.4646 99.0576 77.8554ZM83.7768 92.0298C75.6566 92.5923 67.4851 92.5863 59.362 92.0758C54.7461 85.5384 50.6374 78.6632 47.0905 71.5258C50.62 64.4031 54.6991 57.5415 59.2932 51.0143C67.4225 50.4185 75.6015 50.4171 83.7306 51.0178C88.2849 57.5446 92.3579 64.3884 95.9694 71.447C92.4007 78.5662 88.3004 85.4416 83.7768 92.0298ZM102.023 19.9601C110.381 24.6341 106.661 41.2343 104.835 48.4527C99.273 47.2084 93.233 46.2822 86.9095 45.707C83.2256 40.6211 79.4089 35.9966 75.5772 31.994C81.1951 26.7428 93.7458 15.3318 102.023 19.9601Z" fill="#53C1DE"/>
</svg>
