<svg width="550" height="550" viewBox="0 0 550 550" fill="none" xmlns="http://www.w3.org/2000/svg">
<path fill-rule="evenodd" clip-rule="evenodd" d="M275 515.625C407.893 515.625 515.625 407.893 515.625 275C515.625 142.106 407.893 34.375 275 34.375C142.106 34.375 34.375 142.106 34.375 275C34.375 318.156 45.7359 358.658 65.63 393.679L34.375 515.625L160.099 486.472C194.242 505.062 233.388 515.625 275 515.625ZM275 478.606C387.448 478.606 478.606 387.448 478.606 275C478.606 162.552 387.448 71.3942 275 71.3942C162.552 71.3942 71.3942 162.552 71.3942 275C71.3942 318.417 84.9836 358.66 108.141 391.707L89.9038 460.096L159.499 442.697C192.317 465.344 232.11 478.606 275 478.606Z" fill="#14121C"/>
<path d="M214.844 163.282C209.123 151.79 200.347 152.808 191.48 152.808C175.635 152.808 150.928 171.788 150.928 207.111C150.928 236.06 163.684 267.75 206.67 315.154C248.154 360.903 302.661 384.569 347.913 383.764C393.164 382.958 402.474 344.018 402.474 330.867C402.474 325.038 398.857 322.13 396.366 321.34C380.945 313.939 352.504 300.15 346.033 297.559C339.562 294.968 336.183 298.473 334.082 300.379C328.214 305.971 316.581 322.453 312.598 326.16C308.615 329.867 302.677 327.991 300.206 326.59C291.112 322.941 266.457 311.974 246.803 292.922C222.498 269.361 221.071 261.255 216.492 254.039C212.829 248.266 215.517 244.724 216.858 243.177C222.095 237.134 229.326 227.805 232.569 223.169C235.811 218.533 233.237 211.495 231.693 207.111C225.049 188.257 219.421 172.474 214.844 163.282Z" fill="#14121C"/>
</svg>
