<svg width="3999" height="3999" viewBox="0 0 3999 3999" fill="none" xmlns="http://www.w3.org/2000/svg">
<circle cx="1999.5" cy="1999.5" r="1999.5" fill="white"/>
<path fill-rule="evenodd" clip-rule="evenodd" d="M2000 2000C2000 1763.62 2191.62 1572 2428 1572C2664.38 1572 2856 1763.62 2856 2000C2856 2236.38 2664.38 2428 2428 2428C2191.62 2428 2000 2236.38 2000 2000Z" fill="#14121C"/>
<path fill-rule="evenodd" clip-rule="evenodd" d="M1144 2856C1144 2619.62 1335.62 2428 1572 2428H2000V2856C2000 3092.38 1808.38 3284 1572 3284C1335.62 3284 1144 3092.38 1144 2856Z" fill="#14121C"/>
<path fill-rule="evenodd" clip-rule="evenodd" d="M2000 716V1572H2428C2664.38 1572 2856 1380.38 2856 1144C2856 907.622 2664.38 716 2428 716H2000Z" fill="#14121C"/>
<path fill-rule="evenodd" clip-rule="evenodd" d="M1144 1144C1144 1380.38 1335.62 1572 1572 1572H2000V716H1572C1335.62 716 1144 907.622 1144 1144Z" fill="#14121C"/>
<path fill-rule="evenodd" clip-rule="evenodd" d="M1144 2000C1144 2236.38 1335.62 2428 1572 2428H2000V1572H1572C1335.62 1572 1144 1763.62 1144 2000Z" fill="#14121C"/>
</svg>
