<svg width="3999" height="3999" viewBox="0 0 3999 3999" fill="none" xmlns="http://www.w3.org/2000/svg">
<circle cx="1999.5" cy="1999.5" r="1999.5" fill="white"/>
<path fill-rule="evenodd" clip-rule="evenodd" d="M2000 296C1054.12 296 288 1062.12 288 2008C288 2765.56 778.06 3405.42 1458.58 3632.26C1544.18 3647.24 1576.28 3595.88 1576.28 3550.94C1576.28 3510.28 1574.14 3375.46 1574.14 3232.08C1144 3311.26 1032.72 3127.22 998.48 3030.92C979.22 2981.7 895.76 2829.76 823 2789.1C763.08 2757 677.48 2677.82 820.86 2675.68C955.68 2673.54 1051.98 2799.8 1084.08 2851.16C1238.16 3110.1 1484.26 3037.34 1582.7 2992.4C1597.68 2881.12 1642.62 2806.22 1691.84 2763.42C1310.92 2720.62 912.88 2572.96 912.88 1918.12C912.88 1731.94 979.22 1577.86 1088.36 1458.02C1071.24 1415.22 1011.32 1239.74 1105.48 1004.34C1105.48 1004.34 1248.86 959.4 1576.28 1179.82C1713.24 1141.3 1858.76 1122.04 2004.28 1122.04C2149.8 1122.04 2295.32 1141.3 2432.28 1179.82C2759.7 957.26 2903.08 1004.34 2903.08 1004.34C2997.24 1239.74 2937.32 1415.22 2920.2 1458.02C3029.34 1577.86 3095.68 1729.8 3095.68 1918.12C3095.68 2575.1 2695.5 2720.62 2314.58 2763.42C2376.64 2816.92 2430.14 2919.64 2430.14 3080.14C2430.14 3309.12 2428 3493.16 2428 3550.94C2428 3595.88 2460.1 3649.38 2545.7 3632.26C3221.94 3405.42 3712 2763.42 3712 2008C3712 1062.12 2945.88 296 2000 296Z" fill="#14121C"/>
</svg>
