<svg width="3999" height="3999" viewBox="0 0 3999 3999" fill="none" xmlns="http://www.w3.org/2000/svg">
<circle cx="1999.5" cy="1999.5" r="1999.5" fill="white"/>
<path d="M2004.13 1289.15C2623.21 808.547 2305.48 496 2305.48 496C2352.76 992.849 1793.95 1110.16 1644.15 1451.58C1541.94 1684.56 1714.15 1888.56 2003.92 2145.66C1978.3 2088.72 1938.79 2033.38 1898.79 1977.37C1762.37 1786.31 1620.25 1587.28 2004.13 1289.15Z" fill="#14121C"/>
<path d="M2102.96 2251.06C2102.96 2251.06 2289.21 2100.78 2141.72 1933.79C1641.73 1367.26 2688.56 1110.16 2688.56 1110.16C2049.42 1418.07 2144.84 1600.83 2305.48 1822.85C2477.48 2060.93 2102.96 2251.06 2102.96 2251.06Z" fill="#14121C"/>
<path d="M2651.36 2699.15C3225.07 2405.99 2959.81 2124.27 2774.66 2162.22C2729.28 2171.51 2709.05 2179.56 2709.05 2179.56C2709.05 2179.56 2725.9 2153.61 2758.07 2142.37C3124.35 2015.74 3406.05 2515.85 2639.83 2713.93C2639.83 2713.93 2648.71 2706.13 2651.36 2699.15Z" fill="#14121C"/>
<path d="M1457.59 2328.1C1098.63 2280.96 1654.4 2151.16 1654.4 2151.16C1654.4 2151.16 1438.57 2136.84 1173.13 2263.02C859.262 2412.32 1949.51 2480.22 2513.88 2334.26C2572.56 2294.86 2653.66 2260.71 2653.66 2260.71C2653.66 2260.71 2422.71 2301.27 2192.71 2320.35C1911.28 2343.54 1609.15 2348.06 1457.59 2328.1Z" fill="#14121C"/>
<path d="M1594.15 2608.02C1393.99 2587.66 1525.05 2492.26 1525.05 2492.26C1007.09 2661.31 1813.23 2853.02 2536.99 2644.9C2460.06 2618.23 2411.13 2569.45 2411.13 2569.45C2057.42 2636.43 1853 2634.28 1594.15 2608.02Z" fill="#14121C"/>
<path d="M1681.37 2910.92C1481.35 2888.3 1598.21 2821.48 1598.21 2821.48C1128.03 2950.67 1884.19 3217.57 2482.81 2965.28C2384.76 2927.79 2314.55 2884.5 2314.55 2884.5C2047.52 2934.2 1923.68 2938.1 1681.37 2910.92Z" fill="#14121C"/>
<path d="M2933.42 3064.99C2933.42 3064.99 3019.9 3135.06 2838.19 3189.26C2492.66 3292.19 1400.07 3323.27 1096.55 3193.36C987.442 3146.69 1192.05 3081.91 1256.41 3068.32C1323.53 3054.01 1361.89 3056.67 1361.89 3056.67C1240.55 2972.62 577.611 3221.72 1025.15 3293.06C2245.65 3487.7 3250 3205.41 2933.42 3064.99Z" fill="#14121C"/>
<path d="M3127.13 3218.08C3107.1 3474.31 2261.46 3528.21 1710.77 3493.54C1351.52 3470.89 1279.52 3414.27 1278.47 3413.44C1622.3 3469.19 2201.99 3479.34 2672.01 3392.35C3088.63 3315.21 3127.13 3218.08 3127.13 3218.08Z" fill="#14121C"/>
</svg>
