<svg width="3999" height="3999" viewBox="0 0 3999 3999" fill="none" xmlns="http://www.w3.org/2000/svg">
<circle cx="1999.5" cy="1999.5" r="1999.5" fill="white"/>
<rect x="869.438" y="869.438" width="2260.12" height="2260.12" fill="#14121C"/>
<path d="M2241.66 2749.19L2408.06 2639.08C2421.1 2680.05 2503.68 2777.35 2608 2777.35C2712.31 2777.35 2760.74 2720.38 2760.74 2682.61C2760.74 2579.68 2654.22 2543.39 2603.06 2525.95C2594.72 2523.11 2587.86 2520.77 2583.16 2518.73C2580.75 2517.68 2577.11 2516.29 2572.43 2514.5C2515.53 2492.76 2305.61 2412.56 2305.61 2180.08C2305.61 1924.01 2552.73 1894.56 2608.62 1894.56C2645.18 1894.56 2820.97 1899.05 2908.52 2063.57L2747.08 2176.24C2711.69 2104.54 2652.88 2080.85 2616.69 2080.85C2527.28 2080.85 2508.65 2146.4 2508.65 2176.24C2508.65 2259.96 2605.79 2297.49 2687.82 2329.17C2709.28 2337.46 2729.7 2345.35 2747.08 2353.56C2836.49 2395.82 2968.12 2464.95 2968.12 2682.61C2968.12 2791.63 2876.69 2968.12 2646.49 2968.12C2337.28 2968.12 2255.32 2782.48 2241.66 2749.19Z" fill="white"/>
<path d="M1434.47 2771.05L1607.91 2661C1621.5 2701.95 1674.31 2777.45 1750.93 2777.45C1827.55 2777.45 1866.77 2698.75 1866.77 2661V1918.78H2080.07V2661C2083.52 2763.37 2026.75 2968.12 1776.17 2968.12C1545.78 2968.12 1450 2831.2 1434.47 2771.05Z" fill="white"/>
</svg>
