<svg width="3999" height="3999" viewBox="0 0 3999 3999" fill="none" xmlns="http://www.w3.org/2000/svg">
<circle cx="1999.5" cy="1999.5" r="1999.5" fill="white"/>
<path fill-rule="evenodd" clip-rule="evenodd" d="M2303.58 296.808C2278.93 296.808 2255.88 302.063 2234.86 308.934C2279.94 339.248 2304.59 378.656 2317.13 423.723C2317.93 429.785 2319.75 434.231 2320.56 440.496C2321.37 446.761 2322.58 451.005 2322.58 456.664C2326.22 534.469 2302.37 544.17 2285.39 590.045C2259.72 649.258 2266.8 712.917 2297.52 763.845C2300.33 770.663 2303.86 777.165 2308.03 783.246C2274.48 559.731 2461.04 525.982 2495.4 456.26C2498.02 395.228 2447.7 354.607 2407.88 326.314C2369.88 303.275 2335.11 296 2303.58 296V296.808ZM2584.53 347.332C2580.89 367.541 2583.72 362.286 2582.51 372.997L2580.49 396.036L2574.42 417.256C2572.4 424.329 2569.98 431.402 2567.35 438.475L2557.65 458.685C2555.02 462.322 2553.2 465.758 2550.57 469.193L2545.32 477.277L2531.98 494.859C2526.72 500.114 2522.28 506.379 2515.81 511.027C2509.34 515.675 2505.3 521.536 2499.03 525.982C2480.44 540.128 2459.22 550.637 2439.81 563.975C2433.75 568.421 2427.69 572.059 2422.23 577.313C2416.25 581.545 2410.63 586.277 2405.45 591.46C2399.39 596.714 2394.94 601.968 2389.28 608.233C2383.62 614.498 2379.58 619.753 2375.94 625.815L2363.82 644.408L2354.11 664.617L2347.04 684.826L2340.98 707.057C2340.17 710.694 2340.17 715.14 2338.96 718.576C2337.74 722.011 2338.15 725.649 2336.93 729.085L2336.13 751.315C2336.13 756.569 2336.13 761.824 2336.93 767.482C2336.93 774.556 2337.74 781.629 2339.56 789.713C2341.38 797.796 2342.19 803.859 2344.01 810.932L2351.08 832.152C2353.1 836.598 2355.53 841.044 2357.15 844.278L2153.81 765.461L2051.34 739.189L1995.55 725.851C1942.35 715.249 1888.66 707.29 1834.67 702.004C1832.64 702.004 1832.04 701.196 1830.22 701.196L1671.96 693.112L1556.14 697.558C1502.18 701.196 1448.21 708.067 1394.45 716.959L1354.63 724.032L1275 741.614L1235.18 752.123L1197.18 768.897L1168.07 782.235C1166.05 783.043 1164.44 783.043 1163.63 784.256L1138.97 796.382C1136.34 797.19 1134.52 798.403 1132.91 799.009L1105.42 813.155C1099.35 815.783 1093.29 819.218 1087.83 822.047C1085.21 824.068 1081.77 825.483 1079.75 826.493L1056.71 839.832C1049.39 843.875 1042.3 848.328 1035.48 853.17L1017.9 865.295L998.496 879.442L983.539 891.567C981.518 892.376 979.901 894.195 978.284 895.205L964.944 906.724C964.136 908.745 962.317 909.351 961.306 910.362L945.137 925.317L927.552 942.091L912.595 958.258C910.574 960.279 908.149 961.896 906.532 963.512C901.783 969.051 896.792 974.378 891.575 979.478C890.766 981.499 888.947 982.105 887.937 983.924L867.725 1005.14L820.024 1051.02C803.855 1065.16 787.281 1078.5 770.505 1089.82L717.55 1123.37C699.965 1133.07 681.168 1141.96 661.765 1149.64C642.982 1157.63 623.826 1164.71 604.362 1170.86C567.172 1178.94 529.174 1193.9 496.43 1196.53C489.356 1196.53 481.474 1198.55 474.197 1199.15L451.964 1204.41L430.742 1212.49C423.505 1215.36 416.422 1218.59 409.519 1222.19C403.455 1226.64 396.179 1230.27 390.115 1234.32C384.052 1238.36 377.988 1244.02 372.531 1249.27C367.074 1254.53 360.404 1259.78 354.947 1265.44L339.99 1283.02C335.543 1290.09 330.288 1296.36 326.65 1303.23C322.024 1309.71 317.902 1316.53 314.32 1323.64L304.619 1346.68L296.534 1369.72L292.087 1390.94C289.46 1401.45 289.46 1412.16 288.449 1417.21C287.439 1422.26 288.449 1428.93 288.449 1435.2C288.277 1439.05 288.549 1442.92 289.258 1446.72C290.066 1452.78 291.279 1458.24 292.896 1463.49L298.959 1479.66C301.587 1485.72 305.023 1491.18 308.661 1496.43L320.182 1512.6L335.139 1526.74C340.32 1531.93 345.932 1536.66 351.915 1540.89C373.137 1559.48 378.19 1565.55 405.881 1579.69C410.327 1582.32 414.774 1584.14 420.029 1586.77C422.657 1589.39 422.657 1590.2 423.667 1592.02C424.476 1599.09 426.295 1606.17 428.114 1613.24C429.802 1620.52 432.17 1627.62 435.188 1634.46L442.262 1650.63C443.071 1652.65 444.284 1654.27 444.89 1655.07L455.4 1674.47L468.74 1693.07L483.697 1709.84C488.952 1715.1 494.207 1719.54 500.473 1724.8L518.057 1738.13C524.121 1742.58 530.184 1746.22 537.461 1749.65C544 1753.42 550.826 1756.66 557.875 1759.35C563.13 1761.98 569.396 1763.8 575.459 1765.42C581.523 1767.03 586.98 1769.05 590.416 1769.86C587.789 1817.56 586.778 1862.83 594.054 1878.59C602.139 1896.17 640.946 1842.21 679.753 1780.57C674.498 1841.61 670.86 1913.15 679.753 1934.16C688.646 1955.18 742.41 1887.28 788.494 1811.29C1415.07 1666.39 1987.06 2099.48 2047.09 2711.01C2035.57 2615.62 1918.14 2562.47 1864.18 2575.61C1837.9 2641.08 1792.63 2725.15 1720.06 2777.09C1726.13 2718.49 1723.5 2658.67 1711.17 2600.26C1691.4 2681.62 1654 2757.64 1601.62 2822.97C1517.74 2829.03 1433.86 2788.61 1389.4 2727.58C1385.76 2724.95 1384.95 2719.5 1382.32 2716.06L1375.25 2697.47C1372.62 2691.41 1370.8 2685.34 1369.99 2678.88C1369.18 2672.41 1369.18 2666.75 1369.18 2659.47V2646.14C1369.99 2640.07 1371.81 2634.01 1373.63 2627.54L1379.69 2608.95C1383.33 2602.89 1385.76 2596.83 1390.2 2590.36C1405.16 2549.94 1405.16 2513.56 1378.08 2493.35C1372.82 2489.72 1367.57 2487.29 1361.3 2484.46C1357.66 2483.65 1353.22 2481.83 1349.78 2480.82L1342.71 2478.2L1324.11 2473.75C1318.07 2472 1311.81 2471.12 1305.52 2471.12C1299.1 2470.08 1292.61 2469.47 1286.11 2469.31C1281.67 2469.31 1277.22 2470.11 1272.77 2470.11C1266.21 2470.06 1259.68 2470.94 1253.37 2472.74L1234.77 2476.18L1216.18 2482.24L1198.59 2490.32L1181.82 2499.22C975.657 2633.61 1098.95 2947.86 1239.22 3039.21C1186.27 3048.91 1132.1 3060.43 1117.34 3071.95C1153.72 3096.6 1193.34 3116.41 1234.98 3132.98L1378.08 3173.4C1451.45 3189.56 1525.62 3194.62 1600.81 3190.17C1791.8 3176.19 1972.3 3097.43 2112.44 2966.94C2252.58 2836.44 2343.97 2662.03 2371.5 2472.54L2376.75 2495.58L2384.84 2545.09L2388.47 2568.94L2390.5 2595.21L2392.52 2624.31V2638.46C2392.52 2642.9 2393.33 2648.16 2393.33 2652.6C2393.33 2657.05 2392.52 2663.11 2392.52 2668.77V2680.9C2392.52 2686.96 2391.71 2692.42 2391.71 2698.48C2391.71 2701.91 2391.71 2705.55 2390.9 2710L2390.09 2729.4C2389.28 2732.03 2389.28 2734.65 2389.28 2737.48L2386.66 2757.69C2386.66 2760.32 2386.66 2762.95 2385.85 2765.78L2382.41 2791.44V2793.46L2377.16 2818.12L2371.9 2844.39L2364.83 2871.87L2357.75 2899.36L2348.86 2927.65L2329.46 2978.98L2318.95 3004.65L2306.82 3029.3C2306.01 3031.93 2304.8 3033.75 2304.19 3035.37C2244.97 3153.79 2160.08 3255.65 2053.97 3334.87C2046.89 3339.31 2039.82 3344.57 2032.74 3349.82C2030.72 3351.84 2028.3 3352.45 2026.68 3354.27L2007.28 3367.61L2009.9 3372.86H2010.71L2047.9 3367.61H2048.71L2117.43 3355.48C2123.5 3354.67 2130.77 3352.85 2136.84 3351.04L2148.96 3348.41L2167.56 3344.97L2183.73 3340.53C2272.05 3319.31 2357.55 3290 2440.02 3255.65C2299.54 3447.64 2111.17 3602.04 1891.06 3703.69C1992.72 3696.61 2094.39 3679.84 2192.22 3651.55C2548.35 3546.46 2848.09 3306.98 3027.58 2984.24C2991.18 3188.86 2910.02 3382.92 2789.88 3552.52C2875.58 3495.94 2954.21 3430.66 3025.96 3356.49C3223.79 3149.96 3353.64 2887.82 3398.06 2605.31C3428.38 2744.76 3436.87 2889.05 3423.73 3031.33C4061.82 2141.31 3476.69 1218.55 3231.72 975.638C3230.91 973.617 3229.7 973.011 3229.7 971.192C3227.68 981.701 3227.07 992.412 3226.26 1002.92C3223.63 1023.13 3221.01 1042.73 3217.37 1062.13C3213.73 1081.53 3207.67 1100.94 3202.41 1120.74C3197.16 1140.55 3189.07 1158.73 3181.19 1177.33C3173.31 1195.92 3164.41 1213.7 3154.91 1231.29C3145.17 1248.57 3134.58 1265.37 3123.18 1281.61C3111.66 1298.38 3099.33 1314.35 3086.8 1329.3C3073.61 1344.68 3059.71 1359.45 3045.16 1373.56C3036.27 1381.64 3028.39 1388.51 3019.49 1395.79L2999.28 1413.37C2983.5 1425.89 2966.96 1437.43 2949.76 1447.93C2932.88 1458.81 2915.48 1468.86 2897.61 1478.04C2879.02 1486.93 2860.42 1494.81 2841.83 1502.7C2823.01 1509.82 2803.85 1516.02 2784.43 1521.29C2765.02 1526.54 2744.61 1530.99 2725.21 1534.63C2705.8 1538.26 2684.78 1539.88 2665.18 1541.7C2651.03 1542.51 2636.88 1543.72 2624.75 1543.72C2604.54 1543.72 2584.33 1541.7 2564.72 1540.08C2545.12 1538.47 2524.3 1535.64 2504.49 1531.19C2484.43 1527.56 2464.65 1522.57 2445.27 1516.24H2444.46C2463.87 1514.22 2483.27 1512.6 2503.08 1509.16C2522.88 1505.73 2542.89 1501.08 2562.3 1495.82C2581.7 1490.57 2601.1 1484.31 2619.7 1477.23C2638.29 1470.16 2657.7 1461.06 2675.48 1452.58C2693.6 1443.74 2711.27 1434.03 2728.44 1423.48C2745.22 1411.96 2761.99 1400.44 2777.96 1388.11C2793.8 1375.79 2808.85 1362.49 2823.03 1348.3C2837.99 1334.96 2851.33 1320 2864.67 1305.05C2878.01 1290.09 2890.34 1273.32 2901.86 1257.36C2903.88 1254.73 2905.5 1251.29 2907.11 1248.46L2932.78 1208.04C2942.49 1190.46 2951.38 1172.68 2959.06 1154.09C2966.74 1135.49 2974.02 1116.9 2980.28 1097.5C2986.55 1078.1 2990.79 1059.51 2995.24 1040.11C2999.68 1020.7 3002.31 1000.29 3004.13 980.892C3005.95 961.491 3007.57 940.474 3007.57 920.871C3007.57 906.724 3006.76 892.578 3005.55 880.452C3003.53 860.243 3001.1 840.64 2998.47 821.239C2994.95 801.303 2990.5 781.544 2985.13 762.026C2979.07 743.433 2973.01 724.032 2965.73 705.44C2958.45 686.847 2949.56 668.255 2941.07 650.875C2932.58 633.495 2921.67 615.509 2910.75 598.735C2899.84 581.961 2887.71 565.996 2875.38 550.233L2834.96 505.166C2827.49 497.603 2819.81 490.257 2811.92 483.138C2772.31 452.36 2731.3 423.43 2689.03 396.44C2682.96 393.005 2677.51 390.377 2671.44 387.548C2642.34 368.955 2614.85 359.255 2587.56 350.363L2584.53 347.332Z" fill="#14121C"/>
</svg>
