<svg width="3999" height="3999" viewBox="0 0 3999 3999" fill="none" xmlns="http://www.w3.org/2000/svg">
<circle cx="1999.5" cy="1999.5" r="1999.5" fill="white"/>
<path fill-rule="evenodd" clip-rule="evenodd" d="M1635.15 288C1366.48 288 1148.68 498.886 1148.68 759.026V1085.12H1990.64V1175.7H774.47C505.8 1175.7 288 1386.59 288 1646.73L288 2353.27C288 2613.41 505.8 2824.29 774.47 2824.29H1055.13V2425.73C1055.13 2165.59 1272.93 1954.71 1541.59 1954.71H2439.69C2667.03 1954.71 2851.32 1776.27 2851.32 1556.15V759.026C2851.32 498.886 2633.52 288 2364.85 288H1635.15ZM1522.88 867.725C1615.89 867.725 1691.28 794.726 1691.28 704.677C1691.28 614.628 1615.89 541.629 1522.88 541.629C1429.88 541.629 1354.49 614.628 1354.49 704.677C1354.49 794.726 1429.88 867.725 1522.88 867.725Z" fill="#14121C"/>
<path fill-rule="evenodd" clip-rule="evenodd" d="M2364.85 3712C2633.52 3712 2851.32 3501.12 2851.32 3240.97V2914.88L2009.35 2914.88L2009.35 2824.3L3225.52 2824.3C3494.19 2824.3 3711.99 2613.41 3711.99 2353.27V1646.73C3711.99 1386.59 3494.19 1175.71 3225.52 1175.71L2944.87 1175.71V1574.27C2944.87 1834.41 2727.07 2045.29 2458.4 2045.29L1560.3 2045.29C1332.96 2045.29 1148.67 2223.73 1148.67 2443.85L1148.67 3240.97C1148.67 3501.12 1366.47 3712 1635.14 3712H2364.85ZM2477.11 3132.28C2384.11 3132.28 2308.72 3205.28 2308.71 3295.32C2308.71 3385.37 2384.11 3458.37 2477.11 3458.37C2570.11 3458.37 2645.5 3385.37 2645.5 3295.32C2645.5 3205.28 2570.11 3132.28 2477.11 3132.28Z" fill="#14121C"/>
</svg>
