<svg width="3999" height="3999" viewBox="0 0 3999 3999" fill="none" xmlns="http://www.w3.org/2000/svg">
<circle cx="1999.5" cy="1999.5" r="1999.5" fill="white"/>
<path d="M2286.64 1997.42C2286.64 1843.94 2158.32 1719.5 2000 1719.5C1841.7 1719.5 1713.36 1843.94 1713.36 1997.42C1713.36 2150.92 1841.7 2275.35 2000 2275.35C2158.32 2275.35 2286.64 2150.92 2286.64 1997.42Z" fill="#14121C"/>
<path fill-rule="evenodd" clip-rule="evenodd" d="M2930.94 1481.45C2991.47 1242.95 3067.56 800.688 2799.33 650.747C2532.36 501.459 2184.94 787.521 2001.49 959.231C1818.57 789.233 1461.4 504.393 1193.39 654.811C926.523 804.599 1008.82 1239.53 1070.69 1479.52C821.749 1548.08 395 1695.74 395 1997.42C395 2298.25 821.305 2458.9 1068.78 2527.39C1006.67 2768.71 928.498 3197.43 1195.71 3346.88C1464.71 3497.27 1820.78 3219.21 2005.92 3045.63C2190.55 3218.34 2534.64 3498.22 2801.66 3348.35C3069.53 3198 2999.76 2761.67 2937.89 2520.28C3177.78 2451.65 3605 2294.5 3605 1997.42C3605 1698.63 3175.97 1549.77 2930.94 1481.45ZM2900.54 2392.36C2859.91 2267.67 2805.07 2135.07 2737.99 1998.08C2802.02 1864.34 2854.72 1733.44 2894.22 1609.54C3073.84 1660.04 3467.88 1775.44 3467.88 1997.42C3467.88 2221.49 3089.76 2337.98 2900.54 2392.36ZM2732.95 3233.28C2533.72 3345.1 2237.77 3077.45 2101.42 2950.26C2191.87 2854.33 2282.27 2742.82 2370.49 2618.99C2525.68 2605.64 2672.29 2583.81 2805.24 2554.02C2848.79 2724.75 2933.06 3120.96 2732.95 3233.28ZM1264.23 3231.69C1064.97 3120.29 1156.05 2737.73 1201.73 2559.97C1333.21 2588.16 1478.76 2608.45 1634.32 2620.68C1723.12 2741.85 1816.13 2853.23 1909.86 2950.76C1794.05 3059.38 1464.41 3343.6 1264.23 3231.69ZM532.119 1997.42C532.119 1772.51 923.801 1657.96 1107.52 1607.59C1147.69 1734.27 1200.38 1866.72 1263.97 2000.66C1199.56 2136.59 1146.12 2271.15 1105.57 2399.32C930.395 2350.71 532.119 2222.47 532.119 1997.42ZM1262.1 769.879C1462.17 657.596 1772.59 931.051 1905.4 1054.13C1812.15 1151.23 1719.99 1261.76 1631.96 1382.23C1480.99 1395.8 1336.47 1417.59 1203.61 1446.78C1153.76 1253.22 1062.24 882.041 1262.1 769.879ZM2468.58 1526.75C2571.01 1539.28 2669.13 1555.95 2761.27 1576.35C2733.61 1662.31 2699.14 1752.2 2658.53 1844.35C2599.67 1736.06 2536.49 1629.95 2468.58 1526.75ZM2001.53 1149.15C2064.78 1215.58 2128.13 1289.77 2190.44 1370.25C2064.04 1364.46 1937.44 1364.43 1811.04 1370.17C1873.41 1290.43 1937.29 1216.35 2001.53 1149.15ZM1342.65 1844.25C1302.71 1752.42 1268.55 1662.13 1240.64 1574.94C1332.23 1555.07 1429.9 1538.83 1531.66 1526.5C1463.57 1629.48 1400.49 1735.55 1342.65 1844.25ZM1534.59 2477.83C1429.46 2466.46 1330.31 2451.04 1238.76 2431.72C1267.1 2342.98 1302.02 2250.75 1342.8 2156.95C1401.45 2266.78 1465.48 2373.88 1534.59 2477.83ZM2005.33 2855.09C1940.33 2787.09 1875.51 2711.88 1812.19 2630.99C1939.31 2635.83 2066.68 2635.84 2193.77 2630.34C2131.27 2712.71 2068.15 2788.02 2005.33 2855.09ZM2659.84 2152.17C2702.74 2246.99 2738.91 2338.73 2767.64 2425.96C2674.56 2446.55 2574.08 2463.14 2468.2 2475.45C2536.61 2370.3 2600.79 2262.54 2659.84 2152.17ZM2293.96 2491.57C2099.52 2505.03 1903.87 2504.89 1709.37 2492.67C1598.84 2336.14 1500.46 2171.52 1415.54 2000.62C1500.05 1830.07 1597.72 1665.78 1707.72 1509.49C1902.37 1495.22 2098.21 1495.19 2292.85 1509.57C2401.9 1665.85 2499.42 1829.72 2585.9 1998.73C2500.45 2169.19 2402.27 2333.82 2293.96 2491.57ZM2730.84 765.926C2930.96 877.841 2841.89 1275.32 2798.17 1448.15C2665 1418.36 2520.38 1396.18 2368.97 1382.41C2280.76 1260.63 2189.37 1149.9 2097.63 1054.06C2232.14 928.332 2532.66 655.105 2730.84 765.926Z" fill="#14121C"/>
</svg>
