<svg width="3999" height="3999" viewBox="0 0 3999 3999" fill="none" xmlns="http://www.w3.org/2000/svg">
<circle cx="1999.5" cy="1999.5" r="1999.5" fill="white"/>
<g clip-path="url(#clip0_96_121)">
<path d="M3038.75 708H960.246C820.934 708 708 820.934 708 960.246V3038.75C708 3178.07 820.934 3291 960.246 3291H3038.75C3178.07 3291 3291 3178.07 3291 3038.75V960.246C3291 820.934 3178.07 708 3038.75 708Z" fill="#14121C"/>
<path d="M3038.75 708H960.246C820.934 708 708 820.934 708 960.246V3038.75C708 3178.07 820.934 3291 960.246 3291H3038.75C3178.07 3291 3291 3178.07 3291 3038.75V960.246C3291 820.934 3178.07 708 3038.75 708Z" fill="#14121C"/>
<path fill-rule="evenodd" clip-rule="evenodd" d="M2306.93 2763.42V3015.98C2347.99 3037.02 2396.55 3052.8 2452.6 3063.33C2508.66 3073.85 2567.74 3079.11 2629.86 3079.11C2690.39 3079.11 2747.89 3073.33 2802.37 3061.75C2856.85 3050.18 2904.62 3031.1 2945.68 3004.53C2986.74 2977.96 3019.24 2943.23 3043.19 2900.35C3067.14 2857.47 3079.11 2804.46 3079.11 2741.33C3079.11 2695.55 3072.27 2655.43 3058.59 2620.97C3044.9 2586.51 3025.16 2555.86 2999.37 2529.03C2973.58 2502.19 2942.65 2478.12 2906.6 2456.81C2870.54 2435.5 2829.88 2415.37 2784.61 2396.43C2751.45 2382.75 2721.71 2369.47 2695.39 2356.58C2669.07 2343.68 2646.7 2330.53 2628.28 2317.12C2609.85 2303.7 2595.64 2289.49 2585.64 2274.5C2575.65 2259.5 2570.64 2242.53 2570.64 2223.59C2570.64 2206.23 2575.12 2190.58 2584.07 2176.63C2593.01 2162.69 2605.65 2150.72 2621.96 2140.72C2638.28 2130.73 2658.28 2122.96 2681.97 2117.44C2705.66 2111.92 2731.97 2109.16 2760.92 2109.16C2781.98 2109.16 2804.22 2110.74 2827.64 2113.89C2851.06 2117.05 2874.62 2121.91 2898.31 2128.49C2921.99 2135.07 2945.02 2143.36 2967.39 2153.35C2989.76 2163.35 3010.42 2174.92 3029.37 2188.08V1952.1C2990.95 1937.37 2948.97 1926.45 2903.44 1919.35C2857.91 1912.24 2805.66 1908.69 2746.71 1908.69C2686.7 1908.69 2629.86 1915.14 2576.17 1928.03C2522.48 1940.92 2475.24 1961.04 2434.44 1988.4C2393.65 2015.76 2361.41 2050.62 2337.73 2092.98C2314.04 2135.33 2302.2 2185.97 2302.2 2244.9C2302.2 2320.14 2323.91 2384.33 2367.34 2437.47C2410.76 2490.61 2476.68 2535.6 2565.12 2572.43C2599.86 2586.64 2632.23 2600.58 2662.23 2614.26C2692.23 2627.94 2718.16 2642.15 2740 2656.88C2761.84 2671.61 2779.08 2687.66 2791.72 2705.02C2804.35 2722.38 2810.67 2742.11 2810.67 2764.21C2810.67 2780.52 2806.72 2795.65 2798.82 2809.59C2790.93 2823.54 2778.95 2835.64 2762.9 2845.9C2746.84 2856.16 2726.84 2864.18 2702.89 2869.97C2678.94 2875.76 2650.92 2878.65 2618.8 2878.65C2564.06 2878.65 2509.85 2869.05 2456.16 2849.84C2402.47 2830.64 2352.73 2801.83 2306.93 2763.42ZM1882.36 2141.17H2206.34V1933.92H1303.3V2141.17H1625.7V3063.98H1882.36V2141.17Z" fill="white"/>
</g>
<defs>
<clipPath id="clip0_96_121">
<rect width="2583" height="2583" fill="white" transform="translate(708 708)"/>
</clipPath>
</defs>
</svg>
